<svg height="512pt" viewBox="0 -34 512 512" width="512pt" xmlns="http://www.w3.org/2000/svg"><path d="m467.691406 59.078125h-376.410156l-3.675781-22.054687c-3.578125-21.453126-21.957031-37.023438-43.707031-37.023438h-29.128907c-8.15625 0-14.769531 6.613281-14.769531 14.769531s6.613281 14.769531 14.769531 14.769531h29.128907c7.25 0 13.378906 5.1875 14.570312 12.339844l42.25 253.503906h-12.101562c-24.433594 0-44.308594 19.878907-44.308594 44.308594 0 24.433594 19.875 44.308594 44.308594 44.308594h34.460937v4.921875c0 29.863281 24.292969 54.15625 54.152344 54.15625s54.152343-24.292969 54.152343-54.15625v-4.921875h88.617188v4.921875c0 29.863281 24.292969 54.15625 54.152344 54.15625 29.863281 0 54.15625-24.292969 54.15625-54.15625v-4.921875h44.308594c8.15625 0 14.765624-6.613281 14.765624-14.769531s-6.609374-14.769531-14.765624-14.769531h-384c-8.144532 0-14.769532-6.625-14.769532-14.769532 0-8.144531 6.625-14.769531 14.769532-14.769531h379.074218c24.433594 0 44.308594-19.875 44.308594-44.304687v-177.234376c0-24.429687-19.875-44.304687-44.308594-44.304687zm-68.921875 324.921875v4.921875c0 13.574219-11.042969 24.617187-24.617187 24.617187-13.570313 0-24.613282-11.042968-24.613282-24.617187v-4.921875zm-196.921875 0v4.921875c0 13.574219-11.042968 24.617187-24.617187 24.617187s-24.613281-11.042968-24.613281-24.617187v-4.921875zm280.613282-103.382812c0 8.140624-6.625 14.765624-14.769532 14.765624h-337.027344l-34.460937-206.765624h371.488281c8.144532 0 14.769532 6.625 14.769532 14.765624zm0 0"/><path d="m452.921875 177.230469c8.15625 0 14.769531-6.613281 14.769531-14.769531s-6.613281-14.769532-14.769531-14.769532h-14.769531v-14.769531c0-8.15625-6.609375-14.769531-14.769532-14.769531-8.15625 0-14.765624 6.613281-14.765624 14.769531v14.769531h-49.234376v-14.769531c0-8.15625-6.609374-14.769531-14.765624-14.769531-8.160157 0-14.769532 6.613281-14.769532 14.769531v14.769531h-49.230468v-14.769531c0-8.15625-6.613282-14.769531-14.769532-14.769531s-14.769531 6.613281-14.769531 14.769531v14.769531h-49.230469v-14.769531c0-8.15625-6.613281-14.769531-14.769531-14.769531s-14.769531 6.613281-14.769531 14.769531v14.769531h-14.769532c-8.15625 0-14.769531 6.613282-14.769531 14.769532s6.613281 14.769531 14.769531 14.769531h14.769532v29.539062h-14.769532c-8.15625 0-14.769531 6.613281-14.769531 14.769531s6.613281 14.769532 14.769531 14.769532h14.769532v14.769531c0 8.15625 6.613281 14.769531 14.769531 14.769531s14.769531-6.613281 14.769531-14.769531v-14.769531h49.230469v14.769531c0 8.15625 6.613281 14.769531 14.769531 14.769531s14.769532-6.613281 14.769532-14.769531v-14.769531h49.230468v14.769531c0 8.15625 6.609375 14.769531 14.769532 14.769531 8.15625 0 14.765624-6.613281 14.765624-14.769531v-14.769531h49.234376v14.769531c0 8.15625 6.609374 14.769531 14.765624 14.769531 8.160157 0 14.769532-6.613281 14.769532-14.769531v-14.769531h14.769531c8.15625 0 14.769531-6.613282 14.769531-14.769532s-6.613281-14.769531-14.769531-14.769531h-14.769531v-29.539062zm-251.074219 29.539062v-29.539062h49.230469v29.539062zm78.769532 0v-29.539062h49.230468v29.539062zm128 0h-49.234376v-29.539062h49.234376zm0 0"/></svg>